#!OML:ASF F:\VICON\USERDATA\INSTALL\rory3\rory3.ASF
:FULLY-SPECIFIED
:DEGREES
134
root -0.98268 18.4799 34.0684 3.89144 1.85323 -4.18517
lowerback 10.7518 2.18751 6.05245
upperback -2.09828 3.87058 1.45929
thorax -7.98722 1.63385 -2.51701
lowerneck -19.6906 -4.40546 -2.75819
upperneck 14.7419 -5.60303 2.01223
head 7.91892 -2.61449 0.418735
rclavicle 4.39811e-015 2.46493e-014
rhumerus -45.0872 18.5386 -101.765
rradius 122.308
rwrist -13.7074
rhand -18.7877 38.4882
rfingers 7.12502
rthumb 7.5101 8.64152
lclavicle 4.39811e-015 2.46493e-014
lhumerus -68.163 -8.8656 96.714
lradius 110.433
lwrist 37.0284
lhand -32.7488 1.49805
lfingers 7.12502
lthumb -5.97172 31.3939
rfemur 11.9506 9.31094 36.0457
rtibia 51.0709
rfoot 25.108 -5.14041
rtoes 15.7366
lfemur -31.2557 0.109879 -20.9244
ltibia 24.5426
lfoot -0.0732571 -8.82764
ltoes -20.5213
135
root -1.00649 18.4355 34.5904 3.64707 2.01362 -4.30102
lowerback 10.9747 2.12932 6.0539
upperback -2.02204 3.80786 1.4757
thorax -8.03941 1.60273 -2.49983
lowerneck -19.7276 -4.406 -2.75187
upperneck 14.5906 -5.61177 2.0715
head 7.87648 -2.61287 0.437116
rclavicle -4.04278e-014 -2.38542e-014
rhumerus -45.3405 18.6514 -101.826
rradius 121.312
rwrist -13.5645
rhand -18.8369 38.6607
rfingers 7.12502
rthumb 7.46257 8.81238
lclavicle -4.04278e-014 -2.38542e-014
lhumerus -67.7893 -8.48518 96.6894
lradius 111.119
lwrist 36.5218
lhand -32.2188 0.133512
lfingers 7.12502
lthumb -5.46002 30.0432
rfemur 11.2382 9.35869 36.1801
rtibia 54.693
rfoot 24.5179 -4.64603
rtoes 12.6846
lfemur -30.5166 0.708526 -21.4182
ltibia 23.3366
lfoot 0.354186 -8.78473
ltoes -19.7077
136
root -1.02992 18.3655 35.1113 3.228 2.25778 -4.24202
lowerback 11.2644 2.03408 5.97646
upperback -1.81236 3.67254 1.37191
thorax -7.98726 1.54291 -2.55365
lowerneck -19.5712 -4.48628 -2.73285
upperneck 14.1597 -5.75733 2.27474
head 7.71581 -2.66513 0.490433
rclavicle 1.2424e-014 4.13472e-014
rhumerus -45.3607 18.4337 -101.911
rradius 120.185
rwrist -13.2918
rhand -18.7701 38.5435
rfingers 7.12502
rthumb 7.52705 8.69742
lclavicle 1.2424e-014 4.13472e-014
lhumerus -67.1057 -8.44778 96.5386
lradius 111.765
lwrist 36.082
lhand -32.4014 0.253303
lfingers 7.12502
lthumb -5.63632 30.1583
rfemur 10.5094 9.0583 35.9898
rtibia 58.5928
rfoot 23.7185 -3.52593
rtoes 8.33872
lfemur -29.8024 1.37675 -22.1535
ltibia 22.7939
lfoot -0.136012 -9.48513
ltoes -20.3084
137
root -1.05709 18.2686 35.6305 2.73388 2.30494 -3.9473
lowerback 11.3624 1.982 5.52382
upperback -1.34086 3.51216 1.25146
thorax -7.56358 1.50445 -2.39487
lowerneck -19.617 -4.48242 -2.51528
upperneck 13.6008 -5.79454 2.27438
head 7.53215 -2.6751 0.456204
rclavicle 2.42766e-014 1.41137e-014
rhumerus -45.0163 18.3287 -101.893
rradius 118.918
rwrist -12.9971
rhand -18.5147 38.008
rfingers 7.12502
rthumb 7.7736 8.17091
lclavicle 2.42766e-014 1.41137e-014
lhumerus -65.8159 -8.37541 96.3018
lradius 112.293
lwrist 35.5996
lhand -32.6612 0.411397
lfingers 7.12502
lthumb -5.88715 30.3096
rfemur 9.69097 8.73456 35.4112
rtibia 62.7362
rfoot 23.0616 -2.26194
rtoes 4.56988
lfemur -29.0555 2.23328 -23.1001
ltibia 23.0263
lfoot -0.485216 -10.3588
ltoes -19.4424
138
root -1.09743 18.155 36.1267 2.24517 2.41167 -3.96845
lowerback 11.9338 1.9196 5.21447
upperback -1.07882 3.41401 1.27995
thorax -7.63365 1.47133 -2.19604
lowerneck -19.6862 -4.39351 -2.53263
upperneck 13.2982 -5.69964 2.50279
head 7.44929 -2.61006 0.547491
rclavicle 1.99779e-014 1.37161e-014
rhumerus -44.9367 18.1565 -101.855
rradius 117.518
rwrist -12.6118
rhand -18.7081 38.1415
rfingers 7.12502
rthumb 7.58687 8.29762
lclavicle 1.99779e-014 1.37161e-014
lhumerus -64.6525 -8.23044 96.1612
lradius 112.821
lwrist 35.0329
lhand -32.608 0.310252
lfingers 7.12502
lthumb -5.83575 30.2099
rfemur 8.41125 8.29127 35.1541
rtibia 67.1204
rfoot 22.5841 -1.41353
rtoes 17.59
lfemur -28.4062 3.02365 -23.541
ltibia 23.4913
lfoot -0.511229 -11.5097
ltoes -19.7605
139
root -1.14367 18.029 36.6114 1.72494 2.98433 -4.32327
lowerback 12.8856 1.72384 5.30847
upperback -1.10495 3.24001 1.34771
thorax -8.21797 1.36408 -2.1887
lowerneck -19.3336 -4.31584 -2.46699
upperneck 13.061 -5.66028 2.76355
head 7.31796 -2.56872 0.636153
rclavicle -3.76945e-014 -4.37326e-015
rhumerus -45.3665 17.4762 -101.882
rradius 116.177
rwrist -12.076
rhand -18.9819 38.195
rfingers 7.12502
rthumb 7.3226 8.34175
lclavicle -3.76945e-014 -4.37326e-015
lhumerus -63.8748 -8.30518 96.1565
lradius 113.475
lwrist 34.2888
lhand -32.0079 0.173275
lfingers 7.12502
lthumb -5.25635 30.0881
rfemur 6.92915 7.21439 35.1645
rtibia 71.4746
rfoot 21.7744 -0.556355
rtoes 17.0602
lfemur -27.847 3.3095 -23.4761
ltibia 24.1908
lfoot -0.15979 -13.301
ltoes -18.6931
140
root -1.19746 17.8864 37.0693 0.898002 5.21908 -4.19545
lowerback 14.3446 0.913172 5.12713
upperback -1.17415 2.23267 1.31165
thorax -9.20748 0.853471 -1.97601
lowerneck -18.5101 -4.27028 -2.46924
upperneck 12.573 -5.67005 3.16354
head 7.03424 -2.55065 0.78502
rclavicle -4.96962e-017 -1.39149e-014
rhumerus -45.9261 16.7168 -101.974
rradius 114.831
rwrist -11.1514
rhand -18.632 37.0426
rfingers 7.12502
rthumb 7.66033 7.20133
lclavicle -4.96962e-017 -1.39149e-014
lhumerus -63.0774 -8.46635 96.1268
lradius 114.188
lwrist 33.6907
lhand -31.6977 -0.344928
lfingers 7.12502
lthumb -4.95684 29.5771
rfemur 5.68197 4.15092 34.4193
rtibia 75.6797
rfoot 20.3029 0.157098
rtoes 13.0116
lfemur -27.57 1.79754 -23.7507
ltibia 25.8395
lfoot 0.372335 -15.9837
ltoes -9.90015
141
root -1.20717 17.7749 37.6109 0.428313 5.746 -3.89383
lowerback 14.359 0.718689 4.82926
upperback -0.936914 1.90396 1.21598
thorax -8.98281 0.717264 -1.83864
lowerneck -18.0188 -4.32694 -2.77849
upperneck 12.1435 -5.75887 3.73186
head 6.84303 -2.56735 1.02031
rclavicle 1.36789e-014 6.55989e-015
rhumerus -46.2595 16.0544 -101.797
rradius 113.459
rwrist -10.4399
rhand -18.1833 35.9527
rfingers 7.12502
rthumb 8.09341 6.12773
lclavicle 1.36789e-014 6.55989e-015
lhumerus -61.7522 -8.67725 96.1726
lradius 114.773
lwrist 33.1077
lhand -31.9112 -0.764032
lfingers 7.12502
lthumb -5.16298 29.1531
rfemur 4.57536 2.58735 33.0764
rtibia 79.5695
rfoot 18.8387 0.796213
rtoes 14.5579
lfemur -27.8238 1.00345 -23.9295
ltibia 28.266
lfoot 1.64047 -18.2544
ltoes 11.5429
142
root -1.22263 17.6625 38.1433 0.263107 5.90967 -3.59024
lowerback 14.1303 0.674254 4.3594
upperback -0.656736 1.73108 1.12288
thorax -8.56619 0.66793 -1.6294
lowerneck -18.1903 -4.39131 -3.15529
upperneck 12.0938 -5.86231 4.43994
head 6.89422 -2.5687 1.29494
rclavicle 7.90169e-015 1.61016e-014
rhumerus -46.3043 15.4452 -101.552
rradius 111.91
rwrist -9.86871
rhand -18.1078 35.3527
rfingers 7.12502
rthumb 8.16631 5.53049
lclavicle 7.90169e-015 1.61016e-014
lhumerus -59.8773 -8.89075 96.1317
lradius 115.236
lwrist 32.072
lhand -32.2416 -0.257678
lfingers 7.12502
lthumb -5.48205 29.6514
rfemur 2.88226 1.3599 31.5717
rtibia 83.4664
rfoot 17.601 0.912301
rtoes 13.8407
lfemur -27.3955 0.9785 -24.3169
ltibia 31.4428
lfoot -3.06587 -19.7805
ltoes 11.1725
143
root -1.24528 17.5427 38.6553 0.160507 5.55082 -3.3753
lowerback 14.2283 0.795006 3.74497
upperback -0.546735 1.78266 1.0513
thorax -8.51354 0.720775 -1.37158
lowerneck -17.7956 -4.33513 -2.85563
upperneck 11.6805 -5.85205 4.43652
head 6.68545 -2.56162 1.25663
rclavicle -2.29596e-014 -7.25564e-015
rhumerus -46.3645 14.7268 -101.434
rradius 110.172
rwrist -9.06223
rhand -17.9316 34.1318
rfingers 7.12502
rthumb 8.33632 4.31625
lclavicle -2.29596e-014 -7.25564e-015
lhumerus -58.1854 -9.1281 96.1101
lradius 115.884
lwrist 30.8456
lhand -32.8337 0.290188
lfingers 7.12502
lthumb -6.05369 30.1837
rfemur 0.878855 0.612094 30.1254
rtibia 87.3453
rfoot 16.507 0.297661
rtoes 13.2714
lfemur -27.4785 1.04915 -24.5294
ltibia 35.1006
lfoot -5.64794 -19.4147
ltoes 18.969
144
root -1.26743 17.4122 39.1478 -0.191994 4.96779 -3.35927
lowerback 14.8419 0.951665 3.35721
upperback -0.402041 1.94429 1.01071
thorax -8.70734 0.811777 -1.2438
lowerneck -17.2712 -4.2905 -2.35967
upperneck 10.9403 -5.86229 4.26389
head 6.34029 -2.57781 1.13556
rclavicle 1.56357e-014 -1.49089e-015
rhumerus -46.3682 13.903 -101.284
rradius 108.393
rwrist -8.31608
rhand -17.6657 33.0211
rfingers 7.12502
rthumb 8.59298 3.21601
lclavicle 1.56357e-014 -1.49089e-015
lhumerus -56.3149 -9.43255 96.0929
lradius 116.476
lwrist 29.4289
lhand -33.2201 0.587997
lfingers 7.12502
lthumb -6.42675 30.4705
rfemur -1.08131 0.0829805 28.9344
rtibia 91.1591
rfoot 15.471 -0.737189
rtoes 13.1804
lfemur -26.9119 1.48695 -24.8071
ltibia 38.9617
lfoot -11.7425 -16.6562
ltoes 10.7937
145
root -1.27461 17.2849 39.6515 -0.271457 4.74863 -3.36491
lowerback 14.8859 0.941251 3.25817
upperback -0.16625 1.90156 0.944013
thorax -8.47796 0.800542 -1.24844
lowerneck -17.3058 -4.36058 -2.23454
upperneck 10.5425 -6.00331 4.4975
head 6.22777 -2.62631 1.17753
rclavicle -6.28035e-015 -8.00108e-015
rhumerus -46.2565 13.1016 -101.062
rradius 106.476
rwrist -7.64493
rhand -17.5755 32.9015
rfingers 7.12502
rthumb 8.67997 3.09998
lclavicle -6.28035e-015 -8.00108e-015
lhumerus -53.9799 -9.66112 96.0053
lradius 116.736
lwrist 27.5958
lhand -33.3999 -0.150423
lfingers 7.12502
lthumb -6.60026 29.7267
rfemur -3.1994 -0.713888 27.7195
rtibia 94.649
rfoot 14.3512 -1.6118
rtoes 13.6969
lfemur -26.534 1.00119 -24.9458
ltibia 42.2307
lfoot -14.6575 -13.2261
ltoes 7.76387
146
root -1.27765 17.171 40.1522 -0.203539 4.701 -3.01777
lowerback 14.6749 0.849944 2.86087
upperback 0.100464 1.68243 0.788541
thorax -8.08433 0.717362 -1.13558
lowerneck -17.4781 -4.38709 -2.13062
upperneck 10.2807 -6.08694 4.75374
head 6.1813 -2.64248 1.23272
rclavicle 1.8108e-015 -1.91827e-014
rhumerus -46.1198 12.4044 -100.847
rradius 104.345
rwrist -6.81826
rhand -17.7897 33.1866
rfingers 7.12502
rthumb 8.47325 3.37656
lclavicle 1.8108e-015 -1.91827e-014
lhumerus -51.368 -9.82148 95.7781
lradius 116.777
lwrist 25.5996
lhand -33.6376 -1.47464
lfingers 7.12502
lthumb -6.82974 28.3952
rfemur -5.56444 -1.75678 26.0624
rtibia 97.9255
rfoot 13.5267 -1.83976
rtoes 12.4164
lfemur -25.9192 -0.0223634 -25.4361
ltibia 44.7574
lfoot -16.6147 -9.92453
ltoes 7.93369
